<svg id="Layer_3" enable-background="new 0 0 64 64" height="512" viewBox="0 0 64 64" width="512" xmlns="http://www.w3.org/2000/svg"><path d="m56 58v4h4v-4" fill="#1e463c"/><path d="m32 2h30v56h-30z" fill="#70583e"/><path d="m32 2h27v56h-27z" fill="#957552"/><path d="m32 6h30v18h-30z" fill="#957552"/><path d="m32 6h27v18h-27z" fill="#c69c6d"/><path d="m54 30h4v12h-4z" fill="#634e37"/><path d="m20 8h8v12h-8z" fill="#d1d4d9"/><path d="m20 8h5v12h-5z" fill="#e3e5e8"/><path d="m4 8h16v12h-16z" fill="#adadad"/><path d="m4 8h13v12h-13z" fill="#e6e6e6"/><path d="m2 20h34v42h-34z" fill="#737373"/><path d="m2 20h31v42h-31z" fill="#adadad"/><circle cx="19" cy="47" fill="#8d9299" r="11"/><circle cx="19" cy="47" fill="#aae9fd" r="7"/><path d="m6 24h14v4h-14z" fill="#bf9945"/><path d="m6 24h11v4h-11z" fill="#ffcc5c"/><path d="m36 63h-34c-.552 0-1-.448-1-1v-42c0-.552.448-1 1-1h34c.552 0 1 .448 1 1v42c0 .552-.448 1-1 1zm-33-2h32v-40h-32z"/><path d="m2 31h34v2h-34z"/><path d="m19 59c-6.617 0-12-5.383-12-12s5.383-12 12-12 12 5.383 12 12-5.383 12-12 12zm0-22c-5.514 0-10 4.486-10 10s4.486 10 10 10 10-4.486 10-10-4.486-10-10-10z"/><path d="m20 29h-14c-.552 0-1-.448-1-1v-4c0-.552.448-1 1-1h14c.552 0 1 .448 1 1v4c0 .552-.448 1-1 1zm-13-2h12v-2h-12z"/><path d="m24 23h9v2h-9z"/><path d="m24 27h9v2h-9z"/><path d="m19 49c-.912 0-1.77-.355-2.414-1l-.586-.586c-.526-.526-1.474-.526-2 0l-1.293 1.293-1.414-1.414 1.293-1.293c1.289-1.29 3.539-1.29 4.828 0l.586.586c.526.526 1.474.526 2 0l.586-.586c1.289-1.29 3.539-1.29 4.828 0l1.293 1.293-1.414 1.414-1.293-1.293c-.526-.526-1.474-.526-2 0l-.586.586c-.644.645-1.502 1-2.414 1z"/><path d="m19 55c-4.411 0-8-3.589-8-8s3.589-8 8-8 8 3.589 8 8-3.589 8-8 8zm0-14c-3.309 0-6 2.691-6 6s2.691 6 6 6 6-2.691 6-6-2.691-6-6-6z"/><path d="m29 20h-2v-11h-22v11h-2v-12c0-.552.448-1 1-1h24c.552 0 1 .448 1 1z"/><path d="m19 8h2v12h-2z"/><path d="m23 11h2v2h-2z"/><path d="m23 15h2v2h-2z"/><path d="m6.172 13h5.657v2h-5.657z" transform="matrix(.707 -.707 .707 .707 -7.264 10.465)"/><path d="m12.172 13h5.657v2h-5.657z" transform="matrix(.707 -.707 .707 .707 -5.506 14.707)"/><path d="m60 63h-4c-.552 0-1-.448-1-1v-4h2v3h2v-3h2v4c0 .552-.448 1-1 1z"/><path d="m62 59h-26v-2h25v-54h-28v17h-2v-18c0-.552.448-1 1-1h30c.552 0 1 .448 1 1v56c0 .552-.448 1-1 1z"/><path d="m36 23h26v2h-26z"/><path d="m58 43h-4c-.552 0-1-.448-1-1v-12c0-.552.448-1 1-1h4c.552 0 1 .448 1 1v12c0 .552-.448 1-1 1zm-3-2h2v-10h-2z"/><path d="m32 5h30v2h-30z"/></svg>