<?xml version="1.0" encoding="iso-8859-1"?>
<!-- Generator: Adobe Illustrator 19.0.0, SVG Export Plug-In . SVG Version: 6.00 Build 0)  -->
<svg version="1.1" id="Capa_1" xmlns="http://www.w3.org/2000/svg" xmlns:xlink="http://www.w3.org/1999/xlink" x="0px" y="0px"
	 viewBox="0 0 512 512" style="enable-background:new 0 0 512 512;" xml:space="preserve">
<rect x="187.554" y="367.94" style="fill:#239999;" width="136.881" height="77.5"/>
<path style="fill:#45B8C4;" d="M437.567,41.844h15.195c28.518,0,51.634,23.115,51.634,51.623v238.972
	c0,28.507-23.115,51.623-51.634,51.623H59.227c-28.518,0-51.623-23.115-51.623-51.623V93.467c0-28.507,23.104-51.623,51.623-51.623
	h12.331"/>
<path style="fill:#FFFFFF;" d="M71.557,80.786H59.227c-6.998,0-12.681,5.695-12.681,12.693v238.95
	c0,6.998,5.684,12.693,12.681,12.693h40.413h309.846h43.277c6.998,0,12.693-5.695,12.693-12.693V93.478
	c0-6.998-5.695-12.693-12.693-12.693h-15.195H71.557z"/>
<path style="fill:#45B8C4;" d="M369.051,470.156H142.949l0,0c0-22.158,17.963-40.122,40.122-40.122H328.93
	C351.088,430.035,369.051,447.998,369.051,470.156L369.051,470.156z"/>
<path style="fill:#FCC63D;" d="M465.457,268.094v64.33c0,4.927-2.819,9.196-6.925,11.305L351.488,236.685
	c-22.173,7.3-47.55,2.129-65.171-15.492c-12.906-12.906-19.132-29.949-18.685-46.851l34.634,17.296
	c4.005,2.007,8.263,2.95,12.45,2.95c10.25,0,20.115-5.657,25.002-15.451c6.884-13.789,1.288-30.558-12.501-37.452l-33.853-16.901
	c25.012-18.635,60.558-16.607,83.258,6.093c17.367,17.378,22.64,42.258,15.806,64.188L465.457,268.094z"/>
<g>
	<polygon style="fill:#424C59;" points="101.449,134.053 75.75,159.752 109.914,219.615 146.917,223.749 165.446,205.22 
		161.311,168.217 	"/>
	
		<rect x="181.809" y="198.445" transform="matrix(-0.7071 0.7071 -0.7071 -0.7071 510.3182 292.9777)" style="fill:#424C59;" width="25.345" height="107.468"/>
</g>
<path style="fill:#D8401D;" d="M336.25,345.117h-97.675l-12.947-12.947c-9.703-9.703-9.703-25.448,0-35.151l13.697-13.697
	c0.598-0.588,1.206-1.146,1.845-1.663c9.763-8.009,24.191-7.442,33.305,1.673L336.25,345.117z"/>
<path style="fill:#F9572B;" d="M336.25,345.117h-63.265l-30.152-30.152c-9.104-9.104-9.662-23.542-1.663-33.305
	c9.763-8.009,24.191-7.442,33.305,1.673L336.25,345.117z"/>
<path d="M452.763,34.24h-52.789c-4.2,0-7.604,3.405-7.604,7.604s3.404,7.604,7.604,7.604h52.789c24.278,0,44.03,19.747,44.03,44.019
	v238.972c0,24.272-19.751,44.019-44.03,44.019H59.227c-24.272,0-44.019-19.747-44.019-44.019V93.467
	c0-24.272,19.747-44.019,44.019-44.019h315.398c4.2,0,7.604-3.405,7.604-7.604s-3.404-7.604-7.604-7.604H59.227
	C26.569,34.24,0,60.809,0,93.467v238.972c0,32.657,26.569,59.227,59.227,59.227h120.728v30.878
	c-24.867,1.612-44.609,22.344-44.609,47.612c0,4.199,3.405,7.604,7.604,7.604h226.101c4.2,0,7.604-3.405,7.604-7.604
	c0-25.267-19.741-46.001-44.609-47.612v-30.878h120.716c32.664,0,59.238-26.569,59.238-59.227V93.467
	C512,60.809,485.427,34.24,452.763,34.24z M360.549,462.552H151.451c3.433-14.274,16.307-24.914,31.62-24.914H328.93
	C344.242,437.639,357.116,448.278,360.549,462.552z M316.838,422.431H195.162v-30.766h121.677v30.766H316.838z"/>
<path d="M321.17,185.937c-5.148,1.719-10.658,1.329-15.511-1.096l-34.626-17.296c-2.325-1.161-5.082-1.055-7.312,0.283
	c-2.228,1.337-3.618,3.721-3.687,6.319c-0.521,19.802,6.903,38.417,20.903,52.419c18.06,18.06,43.875,25.007,68.359,18.682
	l83.004,83.004c1.485,1.484,3.432,2.227,5.378,2.227c1.946,0,3.892-0.742,5.378-2.227c2.97-2.97,2.97-7.784,0-10.753l-86.191-86.19
	c-2.031-2.029-5.03-2.743-7.754-1.846c-20.311,6.686-42.313,1.456-57.417-13.65c-7.981-7.982-13.247-17.869-15.39-28.637
	l22.562,11.27c8.488,4.24,18.118,4.921,27.122,1.917c9-3.004,16.292-9.334,20.533-17.823c4.24-8.489,4.92-18.121,1.916-27.121
	c-3.004-9.001-9.334-16.293-17.822-20.533l-21.207-10.593c20.655-8.745,45.423-4.45,61.839,11.966
	c14.831,14.831,20.168,36.5,13.924,56.551c-0.839,2.698-0.115,5.639,1.883,7.637l48.506,48.505c2.971,2.97,7.784,2.969,10.754,0
	c2.97-2.97,2.97-7.784,0-10.753l-45.377-45.376c5.843-24.16-1.204-49.585-18.938-67.317c-12.21-12.21-28.411-19.583-45.621-20.761
	c-17.028-1.165-33.924,3.786-47.551,13.942c-2.117,1.578-3.265,4.14-3.03,6.77s1.815,4.95,4.176,6.13l33.845,16.905
	c4.855,2.425,8.474,6.595,10.193,11.743c1.717,5.147,1.329,10.656-1.097,15.51C330.486,180.599,326.317,184.219,321.17,185.937z"/>
<path d="M242.689,271.709l-69.982-69.981l-3.838-34.356c-0.27-2.415-1.678-4.555-3.788-5.76l-59.862-34.164
	c-2.978-1.7-6.723-1.196-9.146,1.227l-25.699,25.699c-2.424,2.423-2.926,6.168-1.227,9.146l34.163,59.862
	c1.204,2.111,3.345,3.518,5.76,3.788l35.722,3.992l69.246,69.245c-2.897,5.97-3.958,12.771-2.858,19.471
	c0.68,4.145,4.597,6.944,8.736,6.271c4.144-0.681,6.951-4.593,6.271-8.736c-0.901-5.482,0.902-11.097,4.823-15.018l13.69-13.69
	c3.259-3.259,7.592-5.053,12.201-5.053c4.608,0,8.94,1.794,12.199,5.053l39.527,39.527c1.485,1.484,3.432,2.227,5.378,2.227
	c1.946,0,3.892-0.742,5.378-2.227c2.97-2.97,2.97-7.784,0-10.753l-39.527-39.527c-6.132-6.131-14.283-9.508-22.954-9.508
	C251.892,268.444,247.061,269.577,242.689,271.709z M85.231,161.025l17.49-17.49l51.463,29.371l3.299,29.526l-13.357,13.357
	l-29.526-3.299L85.231,161.025z M165.446,215.974l65.239,65.239l-7.169,7.169l-65.239-65.239L165.446,215.974z"/>
<path d="M99.639,352.722h353.125c3.213,0,6.41-0.772,9.242-2.229c6.819-3.503,11.054-10.426,11.054-18.068V93.477
	c0-11.192-9.104-20.298-20.298-20.298H59.223c-11.181,0-20.277,9.105-20.277,20.298v238.947c0,11.192,9.096,20.297,20.277,20.297
	h15.068c4.199,0,7.604-3.405,7.604-7.604c0-4.199-3.405-7.604-7.604-7.604H59.223c-2.795,0-5.069-2.283-5.069-5.09V93.477
	c0-2.806,2.274-5.09,5.069-5.09h393.541c2.806,0,5.09,2.283,5.09,5.09v238.947c0,1.915-1.072,3.655-2.8,4.543
	c-0.705,0.363-1.475,0.546-2.289,0.546H99.639c-4.199,0-7.604,3.405-7.604,7.604C92.035,349.317,95.44,352.722,99.639,352.722z"/>
<g>
</g>
<g>
</g>
<g>
</g>
<g>
</g>
<g>
</g>
<g>
</g>
<g>
</g>
<g>
</g>
<g>
</g>
<g>
</g>
<g>
</g>
<g>
</g>
<g>
</g>
<g>
</g>
<g>
</g>
</svg>
