<?xml version="1.0" encoding="iso-8859-1"?>
<!-- Generator: Adobe Illustrator 19.0.0, SVG Export Plug-In . SVG Version: 6.00 Build 0)  -->
<svg version="1.1" id="Capa_1" xmlns="http://www.w3.org/2000/svg" xmlns:xlink="http://www.w3.org/1999/xlink" x="0px" y="0px"
	 viewBox="0 0 512 512" style="enable-background:new 0 0 512 512;" xml:space="preserve">
<rect x="46.927" y="8.533" style="fill:#2996BF;" width="256" height="392.533"/>
<rect x="89.594" y="42.667" style="fill:#FAD87C;" width="170.667" height="51.2"/>
<g style="opacity:0.5;enable-background:new    ;">
	<polygon style="fill:#E97424;" points="89.594,42.667 166.394,42.667 217.594,93.867 89.594,93.867 	"/>
</g>
<rect x="89.594" y="366.933" style="fill:#006684;" width="170.667" height="68.267"/>
<circle style="fill:#FAD87C;" cx="174.927" cy="230.4" r="68.267"/>
<g style="opacity:0.5;enable-background:new    ;">
	<path style="fill:#E97424;" d="M233.688,265.028l-93.389-93.389c-9.95,5.879-18.253,14.182-24.132,24.132l93.389,93.389
		C219.505,283.281,227.808,274.978,233.688,265.028z"/>
</g>
<rect x="12.794" y="25.6" style="fill:#006684;" width="34.133" height="119.467"/>
<rect x="371.194" y="204.8" style="fill:#FAD87C;" width="34.133" height="34.133"/>
<polygon style="fill:#006684;" points="371.194,204.8 405.327,204.8 412.06,76.8 364.461,76.8 "/>
<g>
	<polygon style="fill:#FAD87C;" points="362.661,42.667 364.461,76.8 412.06,76.8 413.861,42.667 	"/>
	<rect x="456.536" y="204.8" style="fill:#FAD87C;" width="34.133" height="34.133"/>
</g>
<polygon style="fill:#006684;" points="456.527,204.8 490.661,204.8 497.393,76.8 449.795,76.8 "/>
<polygon style="fill:#FAD87C;" points="447.994,42.667 449.795,76.8 497.393,76.8 499.194,42.667 "/>
<g>
	<path style="fill:#004559;" d="M229.233,176.094c-24.747-24.653-63.01-29.525-93.141-11.853l-0.119,0.051
		c-0.111,0.06-0.196,0.137-0.299,0.196c-2.509,1.493-4.941,3.132-7.262,4.898l-0.853,0.631c-2.432,1.886-4.745,3.917-6.929,6.076
		c-2.167,2.193-4.207,4.514-6.093,6.955c-0.205,0.256-0.393,0.538-0.589,0.802c-1.801,2.355-3.456,4.813-4.966,7.364
		c-0.043,0.077-0.094,0.154-0.154,0.23v0.094c-21.513,36.48-9.378,83.49,27.093,105.003c24.021,14.165,53.837,14.174,77.867,0.026
		l0.145-0.06c0.102-0.06,0.196-0.137,0.29-0.196c2.517-1.493,4.941-3.123,7.27-4.898l0.853-0.631
		c2.423-1.886,4.745-3.917,6.929-6.076c2.167-2.193,4.207-4.514,6.093-6.955c0.205-0.256,0.393-0.538,0.589-0.802
		c1.801-2.355,3.456-4.813,4.966-7.364c0.043-0.077,0.094-0.154,0.154-0.23v-0.094C258.767,239.121,253.903,200.849,229.233,176.094
		z M217.167,188.16c16.273,16.316,21.709,40.533,13.969,62.242l-76.211-76.203C176.625,166.4,200.877,171.836,217.167,188.16z
		 M222.526,266.385c-1.638,2.21-3.43,4.301-5.359,6.255c-1.946,1.929-4.036,3.712-6.238,5.342l-0.282,0.205l-83.507-83.516
		l0.188-0.247c1.638-2.21,3.43-4.309,5.367-6.263c1.946-1.929,4.028-3.712,6.229-5.333l0.29-0.213l83.499,83.516L222.526,266.385z
		 M132.687,272.64c-16.273-16.316-21.709-40.533-13.969-62.242l76.211,76.203C173.229,294.34,149.012,288.913,132.687,272.64z"/>
	<path style="fill:#004559;" d="M89.594,102.4h170.667c4.71,0,8.533-3.823,8.533-8.533v-51.2c0-4.71-3.823-8.533-8.533-8.533H89.594
		c-4.71,0-8.533,3.823-8.533,8.533v51.2C81.061,98.577,84.884,102.4,89.594,102.4z M98.127,51.2h153.6v34.133h-153.6
		C98.127,85.333,98.127,51.2,98.127,51.2z"/>
	<path style="fill:#004559;" d="M12.794,153.6h25.6v247.467c0,4.71,3.823,8.533,8.533,8.533h34.133v25.6
		c0,4.71,3.823,8.533,8.533,8.533h25.6v59.733c0,4.71,3.823,8.533,8.533,8.533h349.867c4.71,0,8.533-3.823,8.533-8.533v-256h8.533
		c4.71,0,8.533-3.823,8.533-8.533V205.09l8.533-161.971c0.247-4.71-3.362-8.721-8.073-8.977c-0.145-0.009-0.307-0.009-0.461-0.009
		h-17.067V0h-17.067v34.133h-17.067c-4.71-0.009-8.542,3.806-8.542,8.525c0,0.154,0,0.307,0.009,0.461l8.533,161.971v33.843
		c0,4.71,3.823,8.533,8.533,8.533h8.533v247.467h-332.8v-51.2h17.067v25.6c0,4.71,3.823,8.533,8.533,8.533h230.4
		c4.71,0,8.533-3.823,8.533-8.533V247.467h8.533c4.71,0,8.533-3.823,8.533-8.533V205.09l8.533-161.971
		c0.247-4.71-3.362-8.721-8.073-8.977c-0.145-0.009-0.307-0.009-0.461-0.009h-17.067V0h-17.067v34.133h-17.067
		c-4.71-0.009-8.542,3.806-8.542,8.525c0,0.154,0,0.307,0.009,0.461l8.533,161.971v33.843c0,4.71,3.823,8.533,8.533,8.533h8.533
		V460.8H166.394v-17.067h93.867c4.71,0,8.533-3.823,8.533-8.533v-25.6h34.133c4.71,0,8.533-3.823,8.533-8.533V8.533
		c0-4.71-3.823-8.533-8.533-8.533h-256c-4.71,0-8.533,3.823-8.533,8.533v8.533h-25.6c-4.71,0-8.533,3.823-8.533,8.533v119.467
		C4.261,149.777,8.084,153.6,12.794,153.6z M465.061,230.4v-17.067h17.067V230.4H465.061z M464.625,196.267L458.78,85.333h29.628
		l-5.845,110.933H464.625z M490.225,51.2l-0.853,17.067h-31.488L457.031,51.2H490.225z M379.727,230.4v-17.067h17.067V230.4H379.727
		z M379.292,196.267l-5.845-110.933h29.628l-5.845,110.933H379.292z M404.892,51.2l-0.853,17.067h-31.488L371.698,51.2H404.892z
		 M251.727,426.667h-85.333v-34.133h-17.067v34.133h-17.067v-34.133h-17.067v34.133H98.127v-51.2h153.6V426.667z M55.461,17.067
		h238.933v375.467h-25.6v-25.6c0-4.71-3.823-8.533-8.533-8.533H89.594c-4.71,0-8.533,3.823-8.533,8.533v25.6h-25.6
		C55.461,392.533,55.461,17.067,55.461,17.067z M21.327,34.133h17.067v102.4H21.327V34.133z"/>
	<rect x="81.061" y="119.467" style="fill:#004559;" width="119.467" height="17.067"/>
	<rect x="81.061" y="324.267" style="fill:#004559;" width="17.067" height="17.067"/>
	<rect x="217.594" y="392.533" style="fill:#004559;" width="17.067" height="17.067"/>
	<rect x="183.461" y="392.533" style="fill:#004559;" width="17.067" height="17.067"/>
	<rect x="251.727" y="119.467" style="fill:#004559;" width="17.067" height="17.067"/>
	<rect x="217.594" y="119.467" style="fill:#004559;" width="17.067" height="17.067"/>
	<rect x="251.727" y="324.267" style="fill:#004559;" width="17.067" height="17.067"/>
	<rect x="115.194" y="324.267" style="fill:#004559;" width="119.467" height="17.067"/>
</g>
<g>
</g>
<g>
</g>
<g>
</g>
<g>
</g>
<g>
</g>
<g>
</g>
<g>
</g>
<g>
</g>
<g>
</g>
<g>
</g>
<g>
</g>
<g>
</g>
<g>
</g>
<g>
</g>
<g>
</g>
</svg>
