<svg height="512pt" viewBox="0 0 512 512.0001" width="512pt" xmlns="http://www.w3.org/2000/svg"><path d="m37.5 504.5h-30v-372c0-8.285156 6.714844-15 15-15s15 6.714844 15 15zm0 0" fill="#abbfcf"/><path d="m504.5 504.5h-30v-372c0-8.285156 6.714844-15 15-15s15 6.714844 15 15zm0 0" fill="#8c9fb0"/><path d="m37.5 137.5h437v245h-437zm0 0" fill="#4380a0"/><path d="m444.5 137.5h30v245h-30zm0 0" fill="#3b7191"/><path d="m37.5 382.5h437v122h-437zm0 0" fill="#ff5622"/><path d="m444.5 382.5h30v122h-30zm0 0" fill="#e8491d"/><path d="m272.371094 428.703125c-3.605469 2.035156-4.882813 6.609375-2.847656 10.21875 1.292968 2.292969 1.976562 4.914063 1.976562 7.578125 0 8.546875-6.953125 15.5-15.5 15.5s-15.5-6.953125-15.5-15.5c0-2.664062.683594-5.285156 1.976562-7.578125 2.035157-3.609375.761719-8.183594-2.847656-10.21875s-8.183594-.757813-10.21875 2.851563c-2.558594 4.535156-3.910156 9.707031-3.910156 14.945312 0 16.816406 13.683594 30.5 30.5 30.5s30.5-13.683594 30.5-30.5c0-5.238281-1.351562-10.410156-3.910156-14.945312-2.035156-3.609376-6.609375-4.886719-10.21875-2.851563zm0 0"/><path d="m256 450c4.144531 0 7.5-3.355469 7.5-7.5v-25c0-4.144531-3.355469-7.5-7.5-7.5s-7.5 3.355469-7.5 7.5v25c0 4.140625 3.355469 7.5 7.5 7.5zm0 0"/><path d="m489.5 110c-11.5625 0-21.113281 8.765625-22.363281 20h-287.136719c-4.144531 0-7.5 3.355469-7.5 7.5 0 4.140625 3.355469 7.5 7.5 7.5h287v230h-422v-230h51c4.144531 0 7.5-3.359375 7.5-7.5 0-4.144531-3.355469-7.5-7.5-7.5h-51.136719c-1.25-11.234375-10.800781-20-22.363281-20-12.40625 0-22.5 10.09375-22.5 22.5v372c0 4.144531 3.355469 7.5 7.5 7.5h497c4.144531 0 7.5-3.355469 7.5-7.5v-372c0-12.40625-10.09375-22.5-22.5-22.5zm-474.5 22.5c0-4.136719 3.363281-7.5 7.5-7.5s7.5 3.363281 7.5 7.5v364.5h-15zm482 364.5h-15v-49.25c0-4.144531-3.355469-7.5-7.5-7.5s-7.5 3.355469-7.5 7.5v49.25h-422v-107h422v25.75c0 4.144531 3.355469 7.5 7.5 7.5s7.5-3.355469 7.5-7.5v-283.25c0-4.136719 3.363281-7.5 7.5-7.5s7.5 3.363281 7.5 7.5zm0 0"/><path d="m155.417969 137.5c0-4.144531-3.359375-7.5-7.5-7.5h-19.917969c-4.144531 0-7.5 3.355469-7.5 7.5 0 4.140625 3.355469 7.5 7.5 7.5h19.917969c4.140625 0 7.5-3.359375 7.5-7.5zm0 0"/><path d="m60.5 172v170c0 4.140625 3.355469 7.5 7.5 7.5s7.5-3.359375 7.5-7.5v-170c0-4.144531-3.355469-7.5-7.5-7.5s-7.5 3.355469-7.5 7.5zm0 0"/><path d="m94.683594 172.5v170c0 4.140625 3.355468 7.5 7.5 7.5 4.140625 0 7.5-3.359375 7.5-7.5v-170c0-4.144531-3.359375-7.5-7.5-7.5-4.144532 0-7.5 3.355469-7.5 7.5zm0 0"/><path d="m128.863281 173v170c0 4.140625 3.355469 7.5 7.5 7.5s7.5-3.359375 7.5-7.5v-170c0-4.144531-3.355469-7.5-7.5-7.5s-7.5 3.355469-7.5 7.5zm0 0"/><path d="m170.546875 351c4.140625 0 7.5-3.355469 7.5-7.5v-170c0-4.144531-3.359375-7.5-7.5-7.5-4.144531 0-7.5 3.355469-7.5 7.5v170c0 4.140625 3.355469 7.5 7.5 7.5zm0 0"/><path d="m212.226562 344v-170c0-4.144531-3.355468-7.5-7.5-7.5-4.140624 0-7.5 3.355469-7.5 7.5v170c0 4.144531 3.359376 7.5 7.5 7.5 4.144532 0 7.5-3.359375 7.5-7.5zm0 0"/><path d="m246.410156 344.5v-170c0-4.144531-3.359375-7.5-7.5-7.5-4.144531 0-7.5 3.355469-7.5 7.5v170c0 4.144531 3.355469 7.5 7.5 7.5 4.140625 0 7.5-3.359375 7.5-7.5zm0 0"/><path d="m280.589844 345v-170c0-4.144531-3.355469-7.5-7.5-7.5-4.140625 0-7.5 3.355469-7.5 7.5v170c0 4.144531 3.359375 7.5 7.5 7.5 4.144531 0 7.5-3.359375 7.5-7.5zm0 0"/><path d="m314.773438 345.5v-170c0-4.144531-3.359376-7.5-7.5-7.5-4.144532 0-7.5 3.355469-7.5 7.5v170c0 4.144531 3.355468 7.5 7.5 7.5 4.140624 0 7.5-3.359375 7.5-7.5zm0 0"/><path d="m348.953125 346v-170c0-4.144531-3.355469-7.5-7.5-7.5-4.140625 0-7.5 3.355469-7.5 7.5v170c0 4.144531 3.359375 7.5 7.5 7.5 4.144531 0 7.5-3.359375 7.5-7.5zm0 0"/><path d="m383.136719 346.5v-170c0-4.144531-3.355469-7.5-7.5-7.5s-7.5 3.355469-7.5 7.5v170c0 4.144531 3.355469 7.5 7.5 7.5s7.5-3.359375 7.5-7.5zm0 0"/><path d="m417.316406 347v-170c0-4.144531-3.355468-7.5-7.5-7.5-4.140625 0-7.5 3.355469-7.5 7.5v170c0 4.144531 3.359375 7.5 7.5 7.5 4.144532 0 7.5-3.359375 7.5-7.5zm0 0"/><path d="m451.5 347.5v-170c0-4.144531-3.355469-7.5-7.5-7.5s-7.5 3.355469-7.5 7.5v170c0 4.144531 3.355469 7.5 7.5 7.5s7.5-3.359375 7.5-7.5zm0 0"/><path d="m124.945312 57.714844c.707032.554687 2.292969 2.167968 4.234376 6.410156 2.667968 5.8125 10.964843 5.828125 13.636718 0 1.945313-4.242188 3.53125-5.855469 4.238282-6.410156 3.144531 1.34375 6.914062.394531 9.011718-2.488282 2.4375-3.351562 1.695313-8.042968-1.65625-10.476562-2.261718-1.648438-6.285156-2.984375-10.804687-1.800781-2.738281.71875-5.277344 2.246093-7.605469 4.5625-2.328125-2.316407-4.867188-3.84375-7.605469-4.5625-4.519531-1.183594-8.542969.15625-10.804687 1.800781-3.351563 2.433594-4.089844 7.125-1.65625 10.476562 2.097656 2.882813 5.863281 3.832032 9.011718 2.488282zm0 0"/><path d="m359.945312 82.714844c.707032.554687 2.292969 2.167968 4.234376 6.410156 2.667968 5.8125 10.964843 5.828125 13.636718 0 1.945313-4.242188 3.53125-5.855469 4.238282-6.410156 3.144531 1.34375 6.914062.394531 9.011718-2.488282 2.4375-3.351562 1.695313-8.042968-1.65625-10.476562-2.261718-1.648438-6.285156-2.984375-10.804687-1.800781-2.738281.71875-5.277344 2.246093-7.605469 4.5625-2.328125-2.316407-4.867188-3.84375-7.605469-4.5625-4.519531-1.183594-8.542969.15625-10.804687 1.800781-3.351563 2.433594-4.089844 7.125-1.65625 10.476562 2.097656 2.882813 5.867187 3.832032 9.011718 2.488282zm0 0"/><path d="m275.945312 15.214844c.707032.554687 2.292969 2.167968 4.234376 6.410156 2.667968 5.8125 10.964843 5.828125 13.636718 0 1.945313-4.242188 3.53125-5.855469 4.238282-6.410156 3.144531 1.34375 6.914062.394531 9.011718-2.488282 2.4375-3.351562 1.695313-8.042968-1.65625-10.476562-2.261718-1.648438-6.285156-2.980469-10.804687-1.800781-2.738281.71875-5.277344 2.246093-7.605469 4.5625-2.328125-2.316407-4.867188-3.84375-7.605469-4.5625-4.519531-1.179688-8.542969.15625-10.804687 1.800781-3.351563 2.433594-4.089844 7.125-1.65625 10.476562 2.097656 2.882813 5.867187 3.832032 9.011718 2.488282zm0 0"/></svg>