<svg height="512" viewBox="0 0 60 60" width="512" xmlns="http://www.w3.org/2000/svg"><g id="Page-1" fill="none" fill-rule="evenodd"><g id="007---Pipe" fill-rule="nonzero"><path id="Shape" d="m57 20v35h-14v-35c0-1.6568542-1.3431458-3-3-3s-3 1.3431458-3 3v3h-14v-3c0-9.3888407 7.6111593-17 17-17s17 7.6111593 17 17z" fill="#9e9e9e"/><path id="Shape" d="m37 17c-1.6548028.0049422-2.9950578 1.3451972-3 3v3h3v-3c.0060761-1.065691.5770595-2.0481631 1.5-2.581-.4536919-.2709246-.9715827-.4155888-1.5-.419z" fill="#707070"/><path id="Shape" d="m40 3c-.506 0-1.005.032-1.5.076 8.7647399.78635209 15.4850546 8.1240686 15.5 16.924v35h3v-35c-.0132191-9.3833598-7.6166402-16.98678088-17-17z" fill="#707070"/><path id="Shape" d="m37 37v3c-.0000001 9.3888406-7.6111594 16.9999997-17 16.9999997s-16.99999986-7.6111591-17-16.9999997v-35h14v35c0 1.6568542 1.3431458 3 3 3s3-1.3431458 3-3v-3z" fill="#9e9e9e"/><path id="Shape" d="m17 43c.5284173-.0034112 1.0463081-.1480754 1.5-.419-.9229405-.5328369-1.4939239-1.515309-1.5-2.581v-35h-3v35c.0049422 1.6548028 1.3451972 2.9950578 3 3z" fill="#707070"/><path id="Shape" d="m34 37v3c-.0149454 8.7999314-6.7352601 16.1376479-15.5 16.924.5.044.994.076 1.5.076 9.3833598-.0132191 16.9867809-7.6166402 17-17v-3z" fill="#707070"/><path id="Shape" d="m19 3c.0028231.53059053-.2101411 1.0395388-.59 1.41-.3704612.3798589-.8794095.59282307-1.41.59h-14c-1.10320187-.0032948-1.9967052-.89679813-2-2-.00282307-.53059053.2101411-1.0395388.59-1.41.3704612-.3798589.87940947-.59282307 1.41-.59h14c1.1032019.0032948 1.9967052.89679813 2 2z" fill="#cfd8dc"/><path id="Shape" d="m17 1h-3c1.1032019.0032948 1.9967052.89679813 2 2 .0028231.53059053-.2101411 1.0395388-.59 1.41-.3704612.3798589-.8794095.59282307-1.41.59002771l3-.00002771c.5305905.00282307 1.0395388-.2101411 1.41-.59.3798589-.3704612.5928231-.87940947.59-1.41-.0032948-1.10320187-.8967981-1.9967052-2-2z" fill="#9e9e9e"/><rect id="Rectangle-path" fill="#ff9801" height="14" rx="2" width="18" x="21" y="23"/><path id="Shape" d="m37 23h-3c1.1032019.0032948 1.9967052.8967981 2 2v10c-.0032948 1.1032019-.8967981 1.9967052-2 2h3c1.1032019-.0032948 1.9967052-.8967981 2-2v-10c-.0032948-1.1032019-.8967981-1.9967052-2-2z" fill="#f57c00"/><path id="Shape" d="m59 57c-.0081672 1.1011688-.8988312 1.9918328-2 2h-14c-1.1032019-.0032948-1.9967052-.8967981-2-2 .0081672-1.1011688.8988312-1.9918328 2-2h14c1.1032019.0032948 1.9967052.8967981 2 2z" fill="#cfd8dc"/><path id="Shape" d="m57 55h-3c1.1032019.0032948 1.9967052.8967981 2 2-.0081672 1.1011688-.8988312 1.9918328-2 2h3c1.1011688-.0081672 1.9918328-.8988312 2-2-.0032948-1.1032019-.8967981-1.9967052-2-2z" fill="#9e9e9e"/><path id="Shape" d="m58 54.184v-34.184c-.0000001-9.9411254-8.0588746-17.99999973-18-17.99999973s-17.9999999 8.05887433-18 17.99999973v2.184c-1.1943509.4222546-1.9947486 1.5492146-2 2.816v10c.0052514 1.2667854.8056491 2.3937454 2 2.816v2.184c0 1.1045695-.8954305 2-2 2s-2-.8954305-2-2v-34.184c1.3765475-.48485233 2.2026937-1.89184415 1.9553873-3.33017801-.2473064-1.43833387-1.49595-2.48858739-2.9553873-2.48582199h-14c-1.45943726-.0027654-2.70808095 1.04748812-2.95538732 2.48582199-.24730638 1.43833386.57883984 2.84532568 1.95538732 3.33017801v34.184c0 9.9411255 8.0588745 18 18 18s18-8.0588745 18-18v-2.184c1.1943509-.4222546 1.9947486-1.5492146 2-2.816v-10c-.0052514-1.2667854-.8056491-2.3937454-2-2.816v-2.184c0-1.1045695.8954305-2 2-2s2 .8954305 2 2v34.184c-1.3765475.4848523-2.2026937 1.8918441-1.9553873 3.330178s1.49595 2.4885874 2.9553873 2.485822h14c1.4594373.0027654 2.7080809-1.0474881 2.9553873-2.485822s-.5788398-2.8453257-1.9553873-3.330178zm-56-51.184c0-.55228475.44771525-1 1-1h14c.5522847 0 1 .44771525 1 1s-.4477153 1-1 1h-14c-.55228475 0-1-.44771525-1-1zm34 37c0 8.836556-7.163444 16-16 16s-16-7.163444-16-16v-34h12v34c0 2.209139 1.790861 4 4 4s4-1.790861 4-4v-2h12zm2-5c0 .5522847-.4477153 1-1 1h-14c-.5522847 0-1-.4477153-1-1v-10c0-.5522847.4477153-1 1-1h14c.5522847 0 1 .4477153 1 1zm2-19c-2.209139 0-4 1.790861-4 4v2h-12v-2c0-8.836556 7.163444-16 16-16s16 7.163444 16 16v34h-12v-34c0-2.209139-1.790861-4-4-4zm17 42h-14c-.5522847 0-1-.4477153-1-1s.4477153-1 1-1h14c.5522847 0 1 .4477153 1 1s-.4477153 1-1 1z" fill="#000"/><g fill="#f5f5f5"><path id="Shape" d="m7 12c-.55228475 0-1-.4477153-1-1v-2c0-.55228475.44771525-1 1-1s1 .44771525 1 1v2c0 .5522847-.44771525 1-1 1z"/><path id="Shape" d="m7 30c-.55228475 0-1-.4477153-1-1v-14c0-.5522847.44771525-1 1-1s1 .4477153 1 1v14c0 .5522847-.44771525 1-1 1z"/></g></g></g></svg>