<svg id="Layer_5" enable-background="new 0 0 64 64" height="512" viewBox="0 0 64 64" width="512" xmlns="http://www.w3.org/2000/svg"><g><g><g><path d="m22 2c3.87 0 7 3.13 7 7s-3.13 7-7 7h1.29.23c4.19 0 8.25 1.46 11.47 4.13l6.58 5.45 3.87-4.83c.39-.48.95-.75 1.56-.75.45 0 .9.16 1.25.44.86.69 1 1.95.31 2.81l-1.17 1.46-6.83 8.54c-.38.48-.95.75-1.56.75-.45 0-.9-.16-1.25-.44-.86-.69-1-1.95-.31-2.81l.39-.49-8.72-7.26h-.11v15h23 10v-12-24z" fill="#e6e9ed"/></g><g><path d="m54 6h4v10h-4z" fill="#fcd770"/></g><g><path d="m46 10h4v6h-4z" fill="#fcd770"/></g><g><path d="m38 12h4v4h-4z" fill="#fcd770"/></g><g><path d="m2 30v10h13 3v-1-9z" fill="#e6e9ed"/></g><g><path d="m34.99 20.13c-3.22-2.67-7.28-4.13-11.47-4.13h-.23l1.71 12-3 3-2.5-2.5-.5-.5 1.71-12h-.89c-5.75 0-10.86 3.76-12.47 9.27-.44 1.51-.77 3.11-.99 4.73-.24 1.68-.36 3.37-.36 5 0 1.86 1.7 3.33 3.62 2.94 1.4-.28 2.38-1.59 2.38-3.02.01-1.81.17-3.46.42-4.92h.01 5.57v9h6 5v-1-15h.11l8.72 7.26 3.74-4.68z" fill="#4fc1e9"/></g><g><path d="m23.29 16 1.71 12-3 3-2.5-2.5-.5-.5 1.71-12h1.29z" fill="#ffeaa7"/></g><g><path d="m48.25 20.44c.86.69 1 1.95.31 2.81l-1.17 1.46-6.83 8.54c-.38.48-.95.75-1.56.75-.45 0-.9-.16-1.25-.44-.86-.69-1-1.95-.31-2.81l.39-.49 3.74-4.68 3.87-4.83c.39-.48.95-.75 1.56-.75.45 0 .9.16 1.25.44z" fill="#d3a06c"/></g><g><path d="m29 39v19.5c0 1.93-1.57 3.5-3.5 3.5-.96 0-1.84-.39-2.47-1.03-.64-.63-1.03-1.51-1.03-2.47v-14.5-1.55c0-.93.37-1.82 1.03-2.48l.97-.97z" fill="#838f9b"/></g><g><path d="m24 39-.97.97c-.66.66-1.03 1.55-1.03 2.48v1.55 14.5c0 .96-.39 1.84-1.03 2.47-.63.64-1.51 1.03-2.47 1.03-1.93 0-3.5-1.57-3.5-3.5v-18.5h3v-1z" fill="#838f9b"/></g><g><circle cx="22" cy="9" fill="#f0d0b4" r="7"/></g><g><circle cx="52" cy="48" fill="#fcd770" r="10"/></g></g><g><path d="m63 1h-41c-4.411 0-8 3.589-8 8 0 2.549 1.203 4.818 3.066 6.284-5.024 1.01-9.223 4.716-10.672 9.711-.369 1.271-.65 2.627-.877 4.005h-4.517v12h13v17.5c0 2.481 2.019 4.5 4.5 4.5 1.421 0 2.675-.675 3.5-1.706.825 1.031 2.079 1.706 3.5 1.706 2.481 0 4.5-2.019 4.5-4.5v-19.5h15.695c-2.834 1.992-4.695 5.28-4.695 9 0 6.065 4.935 11 11 11s11-4.935 11-11c0-3.72-1.861-7.008-4.695-9h4.695zm-47 8c0-3.309 2.691-6 6-6s6 2.691 6 6-2.691 6-6 6-6-2.691-6-6zm22.219 22.376 7.997-9.997c.194-.24.481-.378.787-.378.226 0 .447.077.62.216.432.346.503.978.159 1.407l-7.998 9.998c-.339.421-.991.494-1.407.16-.431-.345-.502-.976-.158-1.406zm-.534-2.535-7.685-6.404v-1.437h-2v17h-9v-8.586l3 3 4.061-4.061-1.615-11.313c3.62.2 7.11 1.544 9.911 3.864l5.822 4.82zm-15.266-11.841 1.521 10.646-1.94 1.94-1.939-1.939 1.52-10.647zm-14.105 8.552c1.437-4.954 6.039-8.43 11.245-8.541l-1.62 11.343.647.646h-4.938c.536-2.4 1.326-4.279 2.092-5.454l-1.676-1.092c-.714 1.095-3.045 5.23-3.064 12.461-.003.983-.681 1.861-1.577 2.042-.614.125-1.214-.021-1.687-.408-.467-.384-.736-.947-.736-1.549 0-3.168.467-6.523 1.314-9.448zm-5.314 5.448h2.245c-.148 1.339-.245 2.684-.245 4 0 1.203.535 2.332 1.469 3.096.722.591 1.615.903 2.536.903.27 0 .542-.026.813-.081 1.839-.371 3.178-2.052 3.183-3.997.004-1.402.109-2.709.28-3.921h3.719v8h-14zm15.5 30c-1.379 0-2.5-1.121-2.5-2.5v-17.5h3v-1h2.729c-.472.723-.729 1.566-.729 2.45v1.55 14.5c0 1.379-1.121 2.5-2.5 2.5zm7 0c-1.379 0-2.5-1.121-2.5-2.5v-14.5-1.55c0-.658.267-1.303.732-1.769l.682-.681h3.586v18.5c0 1.379-1.121 2.5-2.5 2.5zm35.5-13c0 4.963-4.037 9-9 9s-9-4.037-9-9 4.037-9 9-9 9 4.037 9 9zm0-11h-31v-11.959l6.463 5.385c-.786 1.27-.532 2.957.663 3.916.529.425 1.194.658 1.873.658.912 0 1.766-.409 2.345-1.125l8.001-10.002c1.03-1.29.82-3.181-.472-4.218-.529-.422-1.193-.654-1.87-.654-.912 0-1.766.408-2.346 1.124l-3.229 4.037-5.796-4.798c-2.521-2.087-5.54-3.474-8.732-4.054 1.882-1.465 3.1-3.746 3.1-6.31 0-2.39-1.059-4.533-2.726-6h33.726z"/><path d="m51 51c-.552 0-1-.448-1-1h-2c0 1.654 1.346 3 3 3v2h2v-2h3v-3c0-1.654-1.346-3-3-3h-2c-.552 0-1-.448-1-1v-1h3c.552 0 1 .448 1 1h2c0-1.654-1.346-3-3-3v-2h-2v2h-3v3c0 1.654 1.346 3 3 3h2c.552 0 1 .448 1 1v1z"/><path d="m59 5h-6v12h6zm-2 10h-2v-8h2z"/><path d="m51 9h-6v8h6zm-2 6h-2v-4h2z"/><path d="m37 17h6v-6h-6zm2-4h2v2h-2z"/><path d="m49 33h2v2h-2z"/><path d="m53 33h2v2h-2z"/><path d="m57 33h2v2h-2z"/><path d="m32 5h2v2h-2z"/><path d="m40 5h2v2h-2z"/><path d="m36 5h2v2h-2z"/><path d="m49 29h10v2h-10z"/><path d="m49 25h10v2h-10z"/><path d="m52 21h7v2h-7z"/></g></g></svg>