<svg height="512" viewBox="0 0 512 512" width="512" xmlns="http://www.w3.org/2000/svg"><g id="FilledOutline"><path d="m256 160 35.834-35.834a96.167 96.167 0 0 1 68-28.166 96.166 96.166 0 0 1 96.166 96.166 96.167 96.167 0 0 1 -28.166 68l-171.834 171.834-171.834-171.834a96.167 96.167 0 0 1 -28.166-68 96.166 96.166 0 0 1 96.166-96.166 96.167 96.167 0 0 1 68 28.166z" fill="#ed5749"/><path d="m260.402 380h169.706v16h-169.706z" transform="matrix(.707 -.707 .707 .707 -173.236 357.797)"/><path d="m245.487 93.005a137.606 137.606 0 0 0 -16.987-13.645l-9 13.234a121.65 121.65 0 0 1 15.009 12.055z"/><path d="m152.166 72a119.016 119.016 0 0 1 52.345 11.926l6.978-14.4a134.9 134.9 0 0 0 -59.323-13.526c-75.082 0-136.166 61.084-136.166 136.167a137.885 137.885 0 0 0 2.335 25.3l15.727-2.942a121.852 121.852 0 0 1 -2.062-22.358 120.3 120.3 0 0 1 120.166-120.167z"/><path d="m370.343 306.343-114.343 114.344-114.343-114.344-11.314 11.314 120 120a8 8 0 0 0 11.314 0l120-120z"/><path d="m359.833 88a103.48 103.48 0 0 0 -73.656 30.51l-30.177 30.177-30.177-30.177a104.166 104.166 0 1 0 -147.313 147.314l3.834 3.833 11.312-11.314-3.833-3.833a88.167 88.167 0 0 1 124.686-124.687l35.834 35.834a8 8 0 0 0 11.314 0l35.834-35.834a88.167 88.167 0 0 1 124.687 124.686l-3.834 3.834 11.312 11.314 3.835-3.834a104.167 104.167 0 0 0 -73.658-177.823z"/><path d="m16 280h16v16h-16z"/><path d="m319.59 213.47a8 8 0 0 0 -15.08-.279l-40.25 107.333-48.709-139.167a8 8 0 0 0 -15.018-.229l-38.027 98.872h-114.506v16h120a8 8 0 0 0 7.467-5.128l32.179-83.666 48.8 139.437a8 8 0 0 0 7.466 5.357h.088a8 8 0 0 0 7.489-5.191l40.067-106.842 16.854 50.563a8 8 0 0 0 7.59 5.47h128v-16h-122.233z"/><path d="m480 280h16v16h-16z"/></g></svg>