<svg height="479pt" viewBox="0 0 479 479.86429" width="479pt" xmlns="http://www.w3.org/2000/svg"><path d="m195.105469 2.347656c-2.136719-2.152344-5.3125-2.898437-8.183594-1.929687l-131.074219 43.6875-40.621094-40.625c-3.140624-3.03125-8.128906-2.988281-11.214843.097656-3.085938 3.085937-3.128907 8.078125-.097657 11.214844l40.613282 40.625-43.6875 131.070312c-.953125 2.875-.207032 6.042969 1.9375 8.1875l282.839844 282.847657c3.125 3.121093 8.1875 3.121093 11.3125 0l181.023437-181.027344c3.125-3.121094 3.125-8.1875 0-11.308594zm96.167969 458.207032-273.703126-273.695313 39.597657-118.792969 31.015625 31.015625c-11.320313 17.128907-7.835938 40.054688 8.070312 53.039063 15.90625 12.988281 39.0625 11.824218 53.585938-2.699219 14.519531-14.519531 15.683594-37.675781 2.699218-53.582031-12.988281-15.90625-35.910156-19.394532-53.042968-8.070313l-31-31.015625 118.792968-39.617187 273.695313 273.679687zm-175.359376-333.761719c3.136719 3.03125 8.128907 2.988281 11.214844-.097657 3.085938-3.085937 3.128906-8.074218.097656-11.214843l-15.929687-15.941407c9.132813-4.453124 20.089844-2.597656 27.25 4.613282 8.75 8.621094 9.613281 22.445312 2 32.085937-7.613281 9.636719-21.261719 12.003907-31.675781 5.484375-10.410156-6.519531-14.246094-19.828125-8.902344-30.886718zm0 0"/></svg>