<?xml version="1.0" encoding="iso-8859-1"?>
<!-- Generator: Adobe Illustrator 19.0.0, SVG Export Plug-In . SVG Version: 6.00 Build 0)  -->
<svg version="1.1" id="Capa_1" xmlns="http://www.w3.org/2000/svg" xmlns:xlink="http://www.w3.org/1999/xlink" x="0px" y="0px"
	 viewBox="0 0 512 512" style="enable-background:new 0 0 512 512;" xml:space="preserve">
<path d="M447.59,203.61c-0.65,0-1.31-0.07-1.96-0.2c-0.63-0.13-1.26-0.32-1.87-0.57c-0.6-0.25-1.18-0.56-1.72-0.92
	c-0.55-0.36-1.06-0.78-1.52-1.24c-0.46-0.46-0.88-0.97-1.25-1.52c-0.36-0.54-0.67-1.13-0.92-1.73s-0.44-1.23-0.57-1.87
	s-0.19-1.3-0.19-1.95s0.06-1.31,0.19-1.96c0.13-0.63,0.32-1.26,0.57-1.87c0.25-0.6,0.56-1.18,0.92-1.72
	c0.37-0.55,0.79-1.06,1.25-1.52c0.46-0.47,0.97-0.88,1.52-1.25c0.54-0.36,1.12-0.67,1.72-0.92c0.61-0.25,1.24-0.44,1.87-0.57
	c1.29-0.26,2.62-0.26,3.91,0c0.64,0.13,1.27,0.32,1.87,0.57c0.61,0.25,1.19,0.56,1.73,0.92c0.55,0.37,1.06,0.78,1.52,1.25
	c0.46,0.46,0.88,0.97,1.24,1.52c0.36,0.539,0.67,1.12,0.92,1.72c0.25,0.61,0.44,1.24,0.57,1.87c0.13,0.65,0.2,1.31,0.2,1.96
	c0,0.65-0.07,1.31-0.2,1.95s-0.32,1.27-0.57,1.87s-0.56,1.19-0.92,1.73c-0.36,0.55-0.78,1.06-1.24,1.52
	c-0.46,0.46-0.97,0.88-1.52,1.24c-0.54,0.36-1.12,0.67-1.73,0.92c-0.6,0.25-1.23,0.44-1.87,0.57
	C448.9,203.54,448.24,203.61,447.59,203.61z"/>
<path d="M64.41,203.61c-0.65,0-1.31-0.07-1.95-0.2c-0.64-0.13-1.27-0.32-1.87-0.57c-0.61-0.25-1.19-0.56-1.73-0.92
	c-0.55-0.36-1.06-0.78-1.52-1.24s-0.88-0.97-1.24-1.52c-0.36-0.54-0.67-1.13-0.92-1.73s-0.44-1.23-0.57-1.87s-0.2-1.3-0.2-1.95
	s0.07-1.31,0.2-1.96c0.13-0.63,0.32-1.26,0.57-1.87c0.25-0.6,0.56-1.18,0.92-1.72c0.36-0.55,0.78-1.06,1.24-1.52
	c0.46-0.47,0.97-0.88,1.52-1.25c0.54-0.36,1.12-0.67,1.73-0.92c0.6-0.25,1.23-0.44,1.87-0.57c1.29-0.26,2.62-0.26,3.91,0
	c0.63,0.13,1.26,0.32,1.87,0.57c0.6,0.25,1.18,0.56,1.72,0.92c0.55,0.37,1.06,0.78,1.52,1.25c0.46,0.46,0.88,0.97,1.25,1.52
	c0.36,0.539,0.67,1.12,0.92,1.72c0.25,0.61,0.44,1.24,0.57,1.87c0.13,0.65,0.19,1.31,0.19,1.96c0,0.65-0.06,1.31-0.19,1.95
	c-0.13,0.64-0.32,1.27-0.57,1.87s-0.56,1.19-0.92,1.73c-0.37,0.55-0.79,1.06-1.25,1.52s-0.97,0.88-1.52,1.24
	c-0.54,0.36-1.12,0.67-1.72,0.92c-0.61,0.25-1.24,0.44-1.87,0.57C65.72,203.54,65.06,203.61,64.41,203.61z"/>
<rect x="269.6" y="449.5" style="fill:#4B596E;" width="131.5" height="52.5"/>
<path style="fill:#FBE4A3;" d="M401.104,294.849v90.012v25.863c0,21.417-17.362,38.779-38.779,38.779h-60.619
	c-14.12,0-27.441-6.552-36.059-17.737l-18.834-24.443c-8.214-7.056-20.897-13.29-34.35-13.29h-19.151
	c-4.731,0-9.022-1.925-12.12-5.023c-3.107-3.098-5.023-7.397-5.023-12.129c0-17.706,14.354-32.06,32.06-32.06h30.483l-0.103-138.716
	l-0.009,1.389v-4.14c0-0.038,0-0.075,0.009-0.113c0.394-11.031,9.632-19.827,20.85-19.508c10.684,0.301,19.142,9.05,19.687,19.621
	c0.019,0.366,0.028,0.723,0.028,1.089v87.89l0.002,0.554h0.205c0.77-10.496,9.529-18.766,20.231-18.766
	c10.693,0,19.452,8.271,20.222,18.766h0.141c0.77-10.496,9.529-18.766,20.231-18.766c5.605,0,10.674,2.272,14.354,5.943
	c3.333,3.342,5.511,7.829,5.877,12.824h0.141c0.779-10.684,9.848-19.057,20.804-18.757c10.683,0.3,19.142,9.059,19.696,19.63
	C401.095,294.117,401.104,294.483,401.104,294.849z"/>
<path style="fill:#EC7462;" d="M238.648,259.286l-0.04-53.181l-0.009,1.389v-4.14c0-0.038,0-0.075,0.009-0.113
	c0.394-11.031,9.632-19.827,20.85-19.508c10.684,0.301,19.142,9.05,19.687,19.621c0.019,0.366,0.028,0.723,0.028,1.089v57.437
	l45.035,20.067c3.711-4.757,9.488-7.826,15.995-7.826c1.99,0,3.907,0.299,5.724,0.833l-8.687-82.424l67.249-74.644L306.21,97.024
	L256,10l-50.21,87.024l-98.281,20.861l67.249,74.644l-10.531,99.917L238.648,259.286z"/>
<path style="fill:#FAD06A;" d="M205.394,235.786l33.226-14.805l-0.011-14.876l-0.009,1.389v-4.14c0-0.038,0-0.075,0.009-0.113
	c0.394-11.031,9.632-19.827,20.85-19.508c10.684,0.301,19.142,9.05,19.687,19.621c0.019,0.366,0.028,0.723,0.028,1.089v19.119
	l27.433,12.224l-5.807-55.098l37.084-41.162l-54.196-11.503L256,80.035l-27.688,47.988l-54.196,11.503l37.084,41.162
	L205.394,235.786z"/>
<path d="M410.254,203.607c5.523,0,10-4.477,10-10s-4.477-10-10-10H358.74l53.181-59.029c2.392-2.655,3.185-6.385,2.081-9.784
	c-1.104-3.398-3.938-5.95-7.435-6.692l-93.922-19.936L264.662,5.002C262.876,1.907,259.574,0,256,0
	c-3.574,0-6.876,1.907-8.662,5.002l-47.983,83.165l-93.922,19.936c-3.496,0.742-6.33,3.294-7.435,6.692
	c-1.104,3.399-0.311,7.129,2.081,9.784l53.181,59.029h-51.514c-5.523,0-10,4.477-10,10s4.477,10,10,10h61.79l-9.253,87.791
	c-0.374,3.554,1.176,7.038,4.067,9.139c1.738,1.262,3.801,1.91,5.879,1.91c1.38,0,2.767-0.285,4.069-0.866l60.362-26.896
	l0.045,60.137h-20.476c-23.192,0-42.06,18.868-42.06,42.06c0,7.27,2.828,14.092,7.951,19.2c5.128,5.127,11.943,7.952,19.191,7.952
	h19.151c10.749,0,20.886,5.185,27.092,10.254l18.171,23.583c1.363,1.77,2.834,3.44,4.391,5.018c-1.56,1.764-2.515,4.076-2.515,6.616
	V502c0,5.523,4.477,10,10,10h131.502c5.523,0,10-4.477,10-10v-52.498c0-5.336-4.183-9.684-9.447-9.972
	c5.933-8.078,9.447-18.038,9.447-28.807V294.849c0-0.54-0.014-1.081-0.042-1.613c-0.832-15.879-13.747-28.663-29.409-29.103
	c-8.118-0.231-15.577,2.74-21.162,7.778c-1.619-1.461-3.373-2.723-5.228-3.789l-6.8-64.516L410.254,203.607L410.254,203.607z
	 M175.99,276.257l8.714-82.68c0.297-2.821-0.617-5.635-2.515-7.742l-55.648-61.768l81.326-17.262
	c2.774-0.589,5.168-2.328,6.585-4.785L256,30.01l41.548,72.012c1.418,2.456,3.811,4.196,6.586,4.785l81.326,17.262l-55.648,61.768
	c-1.898,2.107-2.813,4.921-2.515,7.742l7.486,71.025c-4.598,0.827-8.906,2.702-12.63,5.479l-32.979-14.694v-16.421l13.362,5.954
	c1.303,0.581,2.69,0.866,4.069,0.866c2.078,0,4.141-0.647,5.879-1.91c2.891-2.101,4.441-5.584,4.067-9.139l-5.34-50.666
	l34.102-37.852c2.392-2.655,3.185-6.385,2.081-9.784c-1.104-3.398-3.938-5.95-7.435-6.692l-49.837-10.578l-25.461-44.128
	c-1.786-3.095-5.088-5.002-8.662-5.002c-3.574,0-6.875,1.907-8.662,5.002l-25.461,44.128l-49.837,10.578
	c-3.496,0.742-6.33,3.294-7.435,6.692c-1.104,3.399-0.311,7.129,2.081,9.784l34.102,37.852l-5.34,50.666
	c-0.374,3.554,1.176,7.038,4.067,9.139c2.891,2.1,6.683,2.497,9.948,1.044l19.167-8.541l0.012,16.417L175.99,276.257z
	 M258.21,173.732c-0.348,0.008-0.694,0.029-1.039,0.049c-0.159,0.009-0.32,0.011-0.479,0.022c-0.504,0.036-1.004,0.085-1.501,0.146
	c-13.304,1.63-24.101,11.991-26.215,25.27c-0.016,0.099-0.037,0.195-0.051,0.294c-0.001,0.007-0.001,0.013-0.002,0.02
	c-0.146,0.988-0.245,1.991-0.293,3.007c-0.02,0.268-0.03,0.539-0.03,0.815v4.14c0,0.156,0.003,0.312,0.011,0.466v0.176l0.005,6.355
	l-11.459,5.107l3.99-37.861c0.297-2.821-0.617-5.635-2.515-7.742l-25.483-28.285l37.241-7.905c2.774-0.589,5.168-2.328,6.585-4.785
	L256,100.045l19.026,32.976c1.418,2.457,3.811,4.196,6.585,4.785l37.241,7.905l-25.483,28.285c-1.898,2.107-2.813,4.921-2.515,7.742
	l3.99,37.861l-5.671-2.527v-12.627c0-0.537-0.014-1.06-0.042-1.603c-0.818-15.879-13.728-28.663-29.389-29.103
	C259.23,173.723,258.718,173.721,258.21,173.732z M391.104,492H279.602v-32.498h22.104h60.618h28.779V492H391.104z M381.099,284.126
	c5.311,0.149,9.7,4.611,9.991,10.153c0.01,0.187,0.014,0.378,0.014,0.57v115.874c0,15.869-12.91,28.779-28.779,28.779h-60.618
	c-10.941,0-21.46-5.174-28.138-13.84l-18.834-24.443c-0.417-0.54-0.887-1.037-1.405-1.482
	c-11.447-9.833-26.724-15.705-40.867-15.705h-19.151c-1.905,0-3.698-0.744-5.06-2.105c-1.343-1.339-2.083-3.131-2.083-5.047
	c0-12.164,9.896-22.06,22.06-22.06h30.483c2.653,0,5.198-1.055,7.074-2.932s2.928-4.422,2.926-7.076l-0.092-123.839v-0.002
	l-0.011-14.876c0-0.144-0.003-0.286-0.009-0.428v-1.998c0.001-0.024,0.002-0.049,0.003-0.074c0.2-5.603,4.954-10.041,10.576-9.869
	c5.312,0.149,9.695,4.603,9.98,10.132c0.01,0.195,0.016,0.386,0.016,0.582v19.119v38.317v30.479l0.001,0.554v17.992
	c0,5.523,4.477,10,10,10s10-4.477,10-10v-16.047c0.081-0.406,0.147-0.817,0.178-1.24c0.391-5.326,4.896-9.498,10.258-9.498
	c5.356,0,9.858,4.172,10.249,9.498c0.009,0.127,0.032,0.251,0.046,0.377V310.9c0,5.523,4.477,10,10,10s10-4.477,10-10v-16.95
	c0.012-0.113,0.033-0.223,0.041-0.337c0.154-2.099,0.954-4.013,2.188-5.569c0.279-0.353,0.58-0.684,0.897-0.994
	c0.037-0.036,0.072-0.076,0.11-0.112c0.102-0.097,0.21-0.186,0.315-0.278c0.119-0.103,0.237-0.207,0.361-0.305
	c0.092-0.074,0.187-0.144,0.282-0.214c0.15-0.111,0.303-0.219,0.46-0.322c0.081-0.054,0.162-0.108,0.245-0.159
	c0.204-0.126,0.412-0.246,0.625-0.358c0.042-0.022,0.082-0.047,0.124-0.068c0.265-0.135,0.537-0.259,0.815-0.371
	c0.043-0.017,0.087-0.032,0.131-0.048c0.228-0.089,0.46-0.169,0.696-0.242c0.085-0.026,0.17-0.05,0.255-0.074
	c0.203-0.057,0.408-0.106,0.615-0.151c0.092-0.02,0.184-0.041,0.277-0.058c0.238-0.044,0.479-0.078,0.721-0.105
	c0.066-0.007,0.13-0.018,0.196-0.024c0.27-0.025,0.543-0.036,0.818-0.039c0.142-0.001,0.285,0.004,0.428,0.009
	c0.143,0.004,0.286,0.011,0.429,0.021c0.186,0.014,0.372,0.029,0.558,0.053c0.058,0.007,0.115,0.017,0.173,0.026
	c0.481,0.07,0.964,0.171,1.444,0.313c0.049,0.014,0.099,0.02,0.147,0.033c1.578,0.487,3.024,1.35,4.22,2.543
	c1.746,1.75,2.806,4.056,2.984,6.493c0.009,0.122,0.031,0.24,0.044,0.361V310.9c0,5.523,4.477,10,10,10s10-4.477,10-10v-16.933
	c0.013-0.12,0.035-0.237,0.043-0.358C370.949,288.143,375.554,283.993,381.099,284.126z"/>
<g>
</g>
<g>
</g>
<g>
</g>
<g>
</g>
<g>
</g>
<g>
</g>
<g>
</g>
<g>
</g>
<g>
</g>
<g>
</g>
<g>
</g>
<g>
</g>
<g>
</g>
<g>
</g>
<g>
</g>
</svg>
