<svg height="512pt" viewBox="-76 0 512 512" width="512pt" xmlns="http://www.w3.org/2000/svg"><path d="m180 0c-99.25 0-180 80.75-180 180 0 42.5 15.148438 83.78125 42.660156 116.238281l137.339844 164.132813 137.308594-164.089844c27.53125-32.472656 42.691406-73.761719 42.691406-116.28125 0-99.25-80.75-180-180-180zm0 300c-66.171875 0-120-53.828125-120-120s53.828125-120 120-120 120 53.828125 120 120-53.828125 120-120 120zm0 0"/><path d="m180 150c-8.269531 0-15 6.730469-15 15s6.730469 15 15 15 15-6.730469 15-15-6.730469-15-15-15zm0 0"/><path d="m180 240c-14.839844 0-27.191406 10.828125-29.570312 25 9.261718 3.238281 19.210937 5 29.570312 5s20.308594-1.761719 29.570312-5c-2.378906-14.171875-14.730468-25-29.570312-25zm0 0"/><path d="m180 90c-49.628906 0-90 40.371094-90 90 0 28.21875 13.058594 53.449219 33.449219 69.960938 8.261719-23.261719 30.492187-39.960938 56.550781-39.960938-24.808594 0-45-20.191406-45-45s20.191406-45 45-45 45 20.191406 45 45-20.191406 45-45 45c26.058594 0 48.289062 16.699219 56.550781 39.960938 20.390625-16.511719 33.449219-41.742188 33.449219-69.960938 0-49.628906-40.371094-90-90-90zm0 0"/><path d="m263.21875 407.660156-83.21875 99.460938-83.230469-99.460938c-23.28125 10.769532-36.769531 26.308594-36.769531 44.339844 0 44.898438 74.460938 60 120 60 45.949219 0 120-15.25 120-60 0-18.03125-13.488281-33.578125-36.78125-44.339844zm0 0"/></svg>