<svg id="icons" enable-background="new 0 0 64 64" height="512" viewBox="0 0 64 64" width="512" xmlns="http://www.w3.org/2000/svg"><g><g><path d="m59.499 61.998c-1.654 0-3-1.346-3-3 0-.553.447-1 1-1s1 .447 1 1c0 .552.448 1 1 1s1-.448 1-1c0-.553.447-1 1-1s1 .447 1 1c0 1.654-1.346 3-3 3z"/></g><g><path d="m57.501 59.998c-.553 0-1-.447-1-1v-11.998c0-.553.447-1 1-1s1 .447 1 1v11.998c0 .553-.447 1-1 1z"/></g><g><path d="m61.499 59.998c-.553 0-1-.447-1-1v-11.998c0-.553.447-1 1-1s1 .447 1 1v11.998c0 .553-.447 1-1 1z"/></g><g><path d="m62.499 48h-5.998c-.553 0-1-.447-1-1s.447-1 1-1h5.998c.553 0 1 .447 1 1s-.447 1-1 1z"/></g><g><path d="m59.499 48c-.553 0-1-.447-1-1v-13c0-.553.447-1 1-1s1 .447 1 1v13c0 .553-.447 1-1 1z"/></g><g><path d="m59.499 35c-.256 0-.512-.098-.707-.293-.391-.391-.391-1.023 0-1.414l2-2c.391-.391 1.023-.391 1.414 0s.391 1.023 0 1.414l-2 2c-.195.195-.451.293-.707.293z"/></g><g><path d="m59.499 35c-.256 0-.512-.098-.707-.293l-2-2c-.391-.391-.391-1.023 0-1.414s1.023-.391 1.414 0l2 2c.391.391.391 1.023 0 1.414-.195.195-.451.293-.707.293z"/></g><g><path d="m57.499 33c-.124 0-.25-.022-.371-.071-.513-.205-.763-.787-.558-1.3l2-5.002c.205-.515.792-.764 1.3-.558.513.205.763.787.558 1.3l-2 5.002c-.157.392-.532.629-.929.629z"/></g><g><path d="m61.499 33c-.396 0-.772-.237-.929-.629l-2-5.002c-.205-.513.045-1.095.558-1.3.509-.205 1.095.043 1.3.558l2 5.002c.205.513-.045 1.095-.558 1.3-.121.049-.247.071-.371.071z"/></g><g><g><path d="m49.5 37.994c-3.309 0-6-2.691-6-6 0-2.379 1.412-4.535 3.599-5.494.308-.136.666-.106.948.079.283.185.453.499.453.837v3.578c0 .552.448 1 1 1s1-.448 1-1v-3.578c0-.338.17-.652.453-.837.281-.186.638-.216.948-.079 2.186.958 3.599 3.114 3.599 5.494 0 3.309-2.691 6-6 6zm-3-8.64c-.632.717-1 1.649-1 2.64 0 2.206 1.794 4 4 4s4-1.794 4-4c0-.991-.368-1.924-1-2.641v1.641c0 1.654-1.346 3-3 3s-3-1.346-3-3z"/></g><g><path d="m49.5 62.002c-1.654 0-3-1.346-3-3 0-.553.447-1 1-1s1 .447 1 1c0 .552.448 1 1 1s1-.448 1-1c0-.553.447-1 1-1s1 .447 1 1c0 1.654-1.346 3-3 3z"/></g><g><path d="m51.5 60.002c-.553 0-1-.447-1-1v-22.424c0-.553.447-1 1-1s1 .447 1 1v22.424c0 .553-.447 1-1 1z"/></g><g><path d="m47.5 60.002c-.553 0-1-.447-1-1v-22.424c0-.553.447-1 1-1s1 .447 1 1v22.424c0 .553-.447 1-1 1z"/></g></g><g><g><path d="m1.501 55.002c-.553 0-1-.447-1-1 0-4.964 4.038-9.002 9.002-9.002.553 0 1 .447 1 1s-.447 1-1 1c-3.861 0-7.002 3.141-7.002 7.002 0 .553-.447 1-1 1z"/></g><g><path d="m43.499 55.002c-.553 0-1-.447-1-1 0-3.859-3.141-7-7-7-.553 0-1-.447-1-1s.447-1 1-1c4.963 0 9 4.037 9 9 0 .553-.447 1-1 1z"/></g><g><path d="m15.5 47.002-5.997-.002c-.553 0-1-.448-1-1 0-.553.448-1 1-1l5.997.002c.553 0 1 .448 1 1 0 .553-.448 1-1 1z"/></g><g><path d="m35.499 47.002-5.999-.002c-.553 0-1-.448-1-1 0-.553.448-1 1-1l5.999.002c.553 0 1 .448 1 1 0 .553-.448 1-1 1z"/></g><g><path d="m1.503 61.998c-.552 0-1-.447-1-1l-.002-6.996c0-.552.447-1 1-1 .552 0 1 .447 1 1l.002 6.996c0 .552-.447 1-1 1z"/></g><g><path d="m43.499 61.998c-.553 0-1-.447-1-1v-6.996c0-.553.447-1 1-1s1 .447 1 1v6.996c0 .553-.447 1-1 1z"/></g></g><g><path d="m15.5 47.002c-.553 0-1-.447-1-1v-5.732c0-.553.447-1 1-1s1 .447 1 1v5.732c0 .553-.447 1-1 1z"/></g><g><path d="m29.5 47c-.553 0-1-.447-1-1v-5.73c0-.553.447-1 1-1s1 .447 1 1v5.73c0 .553-.447 1-1 1z"/></g><g><path d="m22.5 43c-8.822 0-16-7.178-16-16 0-.553.447-1 1-1s1 .447 1 1c0 7.72 6.28 14 14 14s14-6.28 14-14c0-.553.447-1 1-1s1 .447 1 1c0 8.822-7.178 16-16 16z"/></g><g><path d="m37.5 19.998c-.553 0-1-.447-1-1 0-7.72-6.28-14-14-14s-14 6.28-14 14c0 .553-.447 1-1 1s-1-.447-1-1c0-8.822 7.178-16 16-16s16 7.178 16 16c0 .553-.447 1-1 1z"/></g><g><path d="m7.5 28c-.553 0-1-.447-1-1v-4.002c0-.553.447-1 1-1s1 .447 1 1v4.002c0 .553-.447 1-1 1z"/></g><g><path d="m37.5 28c-.553 0-1-.447-1-1v-4.002c0-.553.447-1 1-1s1 .447 1 1v4.002c0 .553-.447 1-1 1z"/></g><g><path d="" style="fill:none;stroke:rgb(0,0,0);stroke-width:2;stroke-linecap:round;stroke-linejoin:round;stroke-miterlimit:10"/></g><g><path d="" style="fill:none;stroke:rgb(0,0,0);stroke-width:2;stroke-linecap:round;stroke-linejoin:round;stroke-miterlimit:10"/></g><g><path d="m39.5 23.998h-34c-.553 0-1-.447-1-1s.447-1 1-1h34c.553 0 1 .447 1 1s-.447 1-1 1z"/></g><g><path d="m39.5 23.998c-.272 0-.544-.11-.741-.328-.026-.027-3.654-3.672-16.259-3.672s-16.232 3.645-16.268 3.682c-.38.395-1.008.418-1.409.046-.4-.373-.432-.993-.064-1.399.16-.177 4.08-4.328 17.741-4.328s17.581 4.151 17.741 4.328c.371.409.34 1.042-.069 1.413-.192.172-.432.258-.672.258z"/></g><g><path d="m37.5 22.658c-.553 0-1-.447-1-1v-2.66c0-.553.447-1 1-1s1 .447 1 1v2.66c0 .553-.447 1-1 1z"/></g><g><path d="m7.5 22.658c-.553 0-1-.447-1-1v-2.66c0-.553.447-1 1-1s1 .447 1 1v2.66c0 .553-.447 1-1 1z"/></g><g><path d="m22.5 4.998c-.553 0-1-.447-1-1v-1c0-.553.447-1 1-1s1 .447 1 1v1c0 .553-.447 1-1 1z"/></g><g><path d="m22.516 50c-5.473 0-7.738-3.305-7.832-3.445-.307-.46-.183-1.08.277-1.387.46-.304 1.075-.182 1.383.271.078.113 1.826 2.561 6.172 2.561 4.414 0 6.151-2.529 6.168-2.555.306-.46.925-.584 1.387-.277.46.307.584.927.277 1.387-.094.14-2.36 3.445-7.832 3.445z"/></g><g><path d="m28.517 62c-.553 0-1-.447-1-1 0-2.757-2.243-5-5.001-5s-5.001 2.243-5.001 5c0 .553-.447 1-1 1s-1-.447-1-1c0-3.859 3.141-7 7.001-7s7.001 3.141 7.001 7c0 .553-.448 1-1 1z"/></g><g><path d="m22.499 16c-2.206 0-4-1.794-4-4s1.794-4 4-4 4 1.794 4 4-1.794 4-4 4zm0-6c-1.103 0-2 .897-2 2s.897 2 2 2 2-.897 2-2-.897-2-2-2z"/></g></g></svg>