<svg height="512pt" viewBox="0 0 512 512" width="512pt" xmlns="http://www.w3.org/2000/svg"><path d="m497 271h-15v-46c0-19.554688-12.539062-36.226562-30-42.421875v-47.578125c0-24.8125-20.1875-45-45-45h-45v-75c0-8.285156-6.714844-15-15-15h-241c-8.285156 0-15 6.714844-15 15v75h-31c-33.085938 0-60 26.914062-60 60v286c0 20.03125 7.757812 39 21.847656 53.410156 14.238282 14.566406 33.113282 22.589844 53.152344 22.589844h362c24.8125 0 45-20.1875 45-45v-46h15c8.285156 0 15-6.714844 15-15v-120c0-8.285156-6.714844-15-15-15zm-90-151c8.269531 0 15 6.730469 15 15v45h-60v-60zm-75 60h-91v-150h91zm-151 0v-150h30v150zm-60-150h30v150h-30zm-61 90h31v60h-31c-16.542969 0-30-13.457031-30-30s13.457031-30 30-30zm392 347c0 8.269531-6.730469 15-15 15h-362c-24.394531 0-45-21.066406-45-46v-234.070312c8.832031 5.121093 19.074219 8.070312 30 8.070312h377c8.269531 0 15 6.730469 15 15v46h-45c-41.355469 0-75 33.644531-75 75s33.644531 75 75 75h45zm30-76h-75c-24.8125 0-45-20.1875-45-45s20.1875-45 45-45h75zm0 0"/><path d="m422 346c0 8.285156-6.714844 15-15 15s-15-6.714844-15-15 6.714844-15 15-15 15 6.714844 15 15zm0 0"/></svg>